<svg xmlns="http://www.w3.org/2000/svg" width="44" height="44" viewBox="0 0 44 44" fill="none">
  <path d="M22 5.81331C29.761 5.81331 37.0759 3.89325 43.5 0.5V4.13129C43.5 5.01432 42.9933 5.82184 42.1871 6.17293C40.5164 6.90083 38.7991 7.54104 37.041 8.08798H41.2368V9.22532C41.2368 10.4815 40.2236 11.5 38.9737 11.5H5.02632C3.77637 11.5 2.76316 10.4815 2.76316 9.22532V8.08798H6.95905C5.20092 7.54104 3.48363 6.90083 1.81286 6.17293C1.00672 5.82184 0.5 5.01432 0.5 4.13129V0.5C6.92409 3.89325 14.239 5.81331 22 5.81331Z" fill="url(#paint0_linear_760_11809)"/>
  <path d="M34.6923 13.5C35.9668 13.5 37 14.5233 37 15.7857V35.2143C37 36.4767 35.9668 37.5 34.6923 37.5H31.2308V20.3571C31.2308 19.7259 30.7142 19.2143 30.0769 19.2143H13.9231C13.2858 19.2143 12.7692 19.7259 12.7692 20.3571V37.5H9.30769C8.03315 37.5 7 36.4767 7 35.2143V15.7857C7 14.5233 8.03315 13.5 9.30769 13.5H34.6923Z" fill="url(#paint1_linear_760_11809)"/>
  <defs>
    <linearGradient id="paint0_linear_760_11809" x1="0.5" y1="6" x2="43.5" y2="6" gradientUnits="userSpaceOnUse">
      <stop stop-color="#F9F128"/>
      <stop offset="0.5" stop-color="#C2F147"/>
      <stop offset="1" stop-color="#2CEAA3"/>
    </linearGradient>
    <linearGradient id="paint1_linear_760_11809" x1="7" y1="25.5" x2="37" y2="25.5" gradientUnits="userSpaceOnUse">
      <stop stop-color="#F9F128"/>
      <stop offset="0.5" stop-color="#C2F147"/>
      <stop offset="1" stop-color="#2CEAA3"/>
    </linearGradient>
  </defs>
</svg>